    <svg id="h-o-l-ds" width="250" height="250" viewBox="0 0 250 250" version="1.1" xmlns="http://www.w3.org/2000/svg" style="display: inline;"><defs><pattern xmlns="http://www.w3.org/2000/svg" id="g34r76i4d" patternUnits="userSpaceOnUse" width="15" height="15"><line stroke="#cccccc" x1="7.5" y1="0" x2="7.5" y2="15"></line><line stroke="#cccccc" x1="0" y1="7.5" x2="15" y2="7.5"></line></pattern></defs><circle class="Rang" layer="0" id="Rang0" cx="125" cy="125" r="122" fill="none" stroke="#2f69c2" stroke-width="4"></circle><text x="125" y="108" r="0" id="Text4" layer="4" fill="#2f69c2" stroke="none" font-size="20" font-family="Arial" font-style="normal" font-weight="normal" transform="rotate(0 125 108)"><tspan dy="5.94" text-anchor="middle">Для</tspan></text><g id="RangText5" layer="5" font-size="14" font-style="normal" font-family="Arial" fill="#2f69c2" stroke="none" font-weight="normal" in="0" rad="117" cut="-39" len="176"><text transform="translate(60.18,44.95) rotate(-37.61)"><tspan>*</tspan></text><text transform="translate(64.52,41.62) rotate(-34.66)"><tspan> </tspan></text><text transform="translate(68.76,38.71) rotate(-30.87)"><tspan>К</tspan></text><text transform="translate(76.04,34.38) rotate(-26.15)"><tspan>о</tspan></text><text transform="translate(83.66,30.66) rotate(-20.88)"><tspan>м</tspan></text><text transform="translate(93.45,26.95) rotate(-15.61)"><tspan>и</tspan></text><text transform="translate(101.62,24.69) rotate(-11.17)"><tspan>т</tspan></text><text transform="translate(108.96,23.26) rotate(-6.73)"><tspan>е</tspan></text><text transform="translate(117.38,22.28) rotate(-2.30)"><tspan>т</tspan></text><text transform="translate(124.84,22.00) rotate(1.21)"><tspan> </tspan></text><text transform="translate(129.98,22.12) rotate(5.00)"><tspan>п</tspan></text><text transform="translate(138.42,22.88) rotate(9.71)"><tspan>о</tspan></text><text transform="translate(146.77,24.33) rotate(13.50)"><tspan> </tspan></text><text transform="translate(151.77,25.54) rotate(17.29)"><tspan>о</tspan></text><text transform="translate(159.86,28.08) rotate(22.01)"><tspan>б</tspan></text><text transform="translate(167.71,31.27) rotate(26.72)"><tspan>р</tspan></text><text transform="translate(175.27,35.10) rotate(31.44)"><tspan>а</tspan></text><text transform="translate(182.49,39.53) rotate(35.60)"><tspan>з</tspan></text><text transform="translate(187.74,43.32) rotate(39.75)"><tspan>о</tspan></text><text transform="translate(194.25,48.75) rotate(44.19)"><tspan>в</tspan></text><text transform="translate(199.59,53.97) rotate(48.63)"><tspan>а</tspan></text><text transform="translate(205.18,60.34) rotate(53.34)"><tspan>н</tspan></text><text transform="translate(210.22,67.15) rotate(58.06)"><tspan>и</tspan></text><text transform="translate(214.69,74.36) rotate(63.61)"><tspan>ю</tspan></text><text transform="translate(219.77,84.65) rotate(68.23)"><tspan> </tspan></text><text transform="translate(221.66,89.43) rotate(71.19)"><tspan>г</tspan></text><text transform="translate(223.42,94.61) rotate(75.07)"><tspan>о</tspan></text><text transform="translate(225.58,102.80) rotate(79.78)"><tspan>р</tspan></text><text transform="translate(227.06,111.15) rotate(84.50)"><tspan>о</tspan></text><text transform="translate(227.86,119.58) rotate(89.21)"><tspan>д</tspan></text><text transform="translate(227.95,128.06) rotate(93.93)"><tspan>а</tspan></text><text transform="translate(227.35,136.51) rotate(97.72)"><tspan> </tspan></text><text transform="translate(226.65,141.60) rotate(101.78)"><tspan>Б</tspan></text><text transform="translate(224.70,150.87) rotate(106.77)"><tspan>а</tspan></text><text transform="translate(222.23,158.98) rotate(111.49)"><tspan>р</tspan></text><text transform="translate(219.11,166.86) rotate(116.21)"><tspan>н</tspan></text><text transform="translate(215.35,174.46) rotate(120.92)"><tspan>а</tspan></text><text transform="translate(210.98,181.72) rotate(125.36)"><tspan>у</tspan></text><text transform="translate(206.64,187.80) rotate(129.79)"><tspan>л</tspan></text><text transform="translate(201.20,194.30) rotate(134.51)"><tspan>а</tspan></text></g><circle class="Rang" layer="8" id="Rang8" cx="125" cy="125" r="67" fill="none" stroke="#2f69c2" stroke-width="2"></circle><text x="125" y="134" r="0" id="Text9" layer="9" fill="#2f69c2" stroke="none" font-size="20" font-family="Arial" font-style="normal" font-weight="normal" transform="rotate(0 125 134)"><tspan dy="6.05" text-anchor="middle">документов</tspan></text><g id="RangText10" layer="10" font-size="14" font-style="normal" font-family="Arial" fill="#2f69c2" stroke="none" font-weight="normal" in="1" rad="117" cut="-43" len="176"><text transform="translate(47.59,41.99) rotate(134.48)"><tspan>И</tspan></text><text transform="translate(39.15,50.75) rotate(128.58)"><tspan>Н</tspan></text><text transform="translate(32.27,59.55) rotate(122.94)"><tspan>Н</tspan></text><text transform="translate(26.29,68.98) rotate(118.40)"><tspan> </tspan></text><text transform="translate(23.10,75.02) rotate(114.11)"><tspan>2</tspan></text><text transform="translate(19.03,84.34) rotate(108.97)"><tspan>2</tspan></text><text transform="translate(15.82,93.99) rotate(103.84)"><tspan>2</tspan></text><text transform="translate(13.48,103.88) rotate(98.70)"><tspan>4</tspan></text><text transform="translate(12.04,113.95) rotate(93.57)"><tspan>0</tspan></text><text transform="translate(11.50,124.10) rotate(88.43)"><tspan>4</tspan></text><text transform="translate(11.88,134.26) rotate(83.30)"><tspan>3</tspan></text><text transform="translate(13.16,144.35) rotate(78.17)"><tspan>8</tspan></text><text transform="translate(15.34,154.28) rotate(73.03)"><tspan>7</tspan></text><text transform="translate(18.40,163.98) rotate(67.90)"><tspan>9</tspan></text><text transform="translate(22.32,173.36) rotate(63.60)"><tspan> </tspan></text><text transform="translate(25.41,179.45) rotate(58.55)"><tspan>О</tspan></text><text transform="translate(32.39,190.62) rotate(52.66)"><tspan>Г</tspan></text><text transform="translate(38.63,198.64) rotate(47.27)"><tspan>Р</tspan></text><text transform="translate(46.29,206.77) rotate(41.63)"><tspan>Н</tspan></text><text transform="translate(54.71,214.11) rotate(37.09)"><tspan> </tspan></text><text transform="translate(60.20,218.18) rotate(32.80)"><tspan>1</tspan></text><text transform="translate(68.80,223.61) rotate(27.66)"><tspan>0</tspan></text><text transform="translate(77.85,228.24) rotate(22.53)"><tspan>2</tspan></text><text transform="translate(87.27,232.05) rotate(17.39)"><tspan>2</tspan></text><text transform="translate(97.01,234.99) rotate(12.26)"><tspan>2</tspan></text><text transform="translate(106.96,237.06) rotate(7.13)"><tspan>0</tspan></text><text transform="translate(117.06,238.22) rotate(1.99)"><tspan>1</tspan></text><text transform="translate(127.23,238.48) rotate(-3.14)"><tspan>5</tspan></text><text transform="translate(137.37,237.82) rotate(-8.28)"><tspan>3</tspan></text><text transform="translate(147.42,236.26) rotate(-13.41)"><tspan>8</tspan></text><text transform="translate(157.29,233.81) rotate(-18.55)"><tspan>3</tspan></text><text transform="translate(166.89,230.49) rotate(-23.68)"><tspan>0</tspan></text><text transform="translate(176.17,226.31) rotate(-28.82)"><tspan>3</tspan></text><text transform="translate(185.03,221.33) rotate(-33.11)"><tspan> </tspan></text><text transform="translate(190.72,217.54) rotate(-36.64)"><tspan>*</tspan></text></g><circle class="Rang" layer="11" id="Rang11" cx="125" cy="125" r="117" fill="none" stroke="#2f69c2" stroke-width="2"></circle><g id="RangText13" layer="13" font-size="13" font-style="normal" font-family="Arial" fill="#2f69c2" stroke="none" font-weight="normal" in="0" rad="101" cut="19" len="360"><text transform="translate(153.65,41.79) rotate(21.93)"><tspan>м</tspan></text><text transform="translate(164.35,46.29) rotate(28.84)"><tspan>у</tspan></text><text transform="translate(172.69,51.04) rotate(35.09)"><tspan>н</tspan></text><text transform="translate(180.46,56.68) rotate(41.35)"><tspan>и</tspan></text><text transform="translate(187.58,63.13) rotate(47.60)"><tspan>ц</tspan></text><text transform="translate(193.95,70.32) rotate(53.86)"><tspan>и</tspan></text><text transform="translate(199.49,78.15) rotate(60.12)"><tspan>п</tspan></text><text transform="translate(204.16,86.55) rotate(66.37)"><tspan>а</tspan></text><text transform="translate(207.87,95.40) rotate(72.63)"><tspan>л</tspan></text><text transform="translate(210.61,104.61) rotate(78.88)"><tspan>ь</tspan></text><text transform="translate(212.32,114.06) rotate(85.14)"><tspan>н</tspan></text><text transform="translate(212.99,123.64) rotate(91.39)"><tspan>о</tspan></text><text transform="translate(212.61,133.23) rotate(97.65)"><tspan>е</tspan></text><text transform="translate(211.20,142.73) rotate(103.04)"><tspan> </tspan></text><text transform="translate(209.53,149.47) rotate(108.42)"><tspan>б</tspan></text><text transform="translate(206.36,158.53) rotate(115.66)"><tspan>ю</tspan></text><text transform="translate(200.74,169.81) rotate(123.21)"><tspan>д</tspan></text><text transform="translate(194.80,178.59) rotate(130.45)"><tspan>ж</tspan></text><text transform="translate(187.14,187.31) rotate(137.35)"><tspan>е</tspan></text><text transform="translate(179.98,193.71) rotate(142.96)"><tspan>т</tspan></text><text transform="translate(173.85,198.20) rotate(148.56)"><tspan>н</tspan></text><text transform="translate(165.58,203.08) rotate(154.82)"><tspan>о</tspan></text><text transform="translate(156.83,207.04) rotate(161.07)"><tspan>е</tspan></text><text transform="translate(147.70,210.02) rotate(166.46)"><tspan> </tspan></text><text transform="translate(140.93,211.55) rotate(171.85)"><tspan>о</tspan></text><text transform="translate(131.41,212.77) rotate(178.10)"><tspan>б</tspan></text><text transform="translate(121.81,212.94) rotate(185.99)"><tspan>щ</tspan></text><text transform="translate(107.31,211.20) rotate(193.87)"><tspan>е</tspan></text><text transform="translate(98.03,208.76) rotate(200.13)"><tspan>о</tspan></text><text transform="translate(89.06,205.33) rotate(206.38)"><tspan>б</tspan></text><text transform="translate(80.52,200.93) rotate(212.64)"><tspan>р</tspan></text><text transform="translate(72.51,195.63) rotate(218.90)"><tspan>а</tspan></text><text transform="translate(65.13,189.49) rotate(224.83)"><tspan>з</tspan></text><text transform="translate(59.12,183.34) rotate(230.76)"><tspan>о</tspan></text><text transform="translate(53.15,175.81) rotate(237.01)"><tspan>в</tspan></text><text transform="translate(48.04,167.68) rotate(243.27)"><tspan>а</tspan></text><text transform="translate(43.85,159.04) rotate(248.87)"><tspan>т</tspan></text><text transform="translate(41.22,151.91) rotate(254.47)"><tspan>е</tspan></text><text transform="translate(38.78,142.62) rotate(260.73)"><tspan>л</tspan></text><text transform="translate(37.38,133.12) rotate(266.98)"><tspan>ь</tspan></text><text transform="translate(37.01,123.52) rotate(273.24)"><tspan>н</tspan></text><text transform="translate(37.70,113.95) rotate(279.50)"><tspan>о</tspan></text><text transform="translate(39.42,104.50) rotate(285.75)"><tspan>о</tspan></text><text transform="translate(42.16,95.30) rotate(292.01)"><tspan>е</tspan></text><text transform="translate(45.89,86.45) rotate(297.39)"><tspan> </tspan></text><text transform="translate(49.18,80.34) rotate(302.78)"><tspan>у</tspan></text><text transform="translate(54.50,72.34) rotate(309.04)"><tspan>ч</tspan></text><text transform="translate(60.65,64.97) rotate(315.29)"><tspan>р</tspan></text><text transform="translate(67.58,58.32) rotate(321.55)"><tspan>е</tspan></text><text transform="translate(75.19,52.46) rotate(328.45)"><tspan>ж</tspan></text><text transform="translate(85.16,46.53) rotate(335.69)"><tspan>д</tspan></text><text transform="translate(94.89,42.31) rotate(342.27)"><tspan>е</tspan></text><text transform="translate(104.08,39.52) rotate(348.52)"><tspan>н</tspan></text><text transform="translate(113.51,37.75) rotate(354.78)"><tspan>и</tspan></text><text transform="translate(123.09,37.02) rotate(361.03)"><tspan>е</tspan></text><text transform="translate(132.69,37.34) rotate(366.42)"><tspan> </tspan></text><text transform="translate(139.57,38.21) rotate(371.16)"><tspan>*</tspan></text><text transform="translate(147.01,39.80) rotate(375.89)"><tspan> </tspan></text></g><g id="RangText14" layer="14" font-size="13" font-style="normal" font-family="Arial" fill="#2f69c2" stroke="none" font-weight="normal" in="0" rad="86" cut="0" len="360"><text transform="translate(125.00,52.00) rotate(1.96)"><tspan>"</tspan></text><text transform="translate(133.81,52.53) rotate(10.46)"><tspan>С</tspan></text><text transform="translate(146.34,55.19) rotate(19.75)"><tspan>р</tspan></text><text transform="translate(156.43,59.11) rotate(28.25)"><tspan>е</tspan></text><text transform="translate(165.82,64.48) rotate(37.14)"><tspan>д</tspan></text><text transform="translate(175.05,71.86) rotate(46.03)"><tspan>н</tspan></text><text transform="translate(182.35,79.84) rotate(54.53)"><tspan>я</tspan></text><text transform="translate(188.40,88.81) rotate(63.03)"><tspan>я</tspan></text><text transform="translate(193.05,98.58) rotate(70.48)"><tspan> </tspan></text><text transform="translate(195.57,106.34) rotate(77.94)"><tspan>о</tspan></text><text transform="translate(197.56,116.97) rotate(86.44)"><tspan>б</tspan></text><text transform="translate(197.95,127.79) rotate(96.90)"><tspan>щ</tspan></text><text transform="translate(195.64,143.42) rotate(107.37)"><tspan>е</tspan></text><text transform="translate(192.14,153.66) rotate(115.87)"><tspan>о</tspan></text><text transform="translate(187.16,163.27) rotate(124.37)"><tspan>б</tspan></text><text transform="translate(180.82,172.04) rotate(132.87)"><tspan>р</tspan></text><text transform="translate(173.26,179.77) rotate(141.37)"><tspan>а</tspan></text><text transform="translate(164.63,186.30) rotate(149.47)"><tspan>з</tspan></text><text transform="translate(156.05,191.07) rotate(157.58)"><tspan>о</tspan></text><text transform="translate(145.94,194.93) rotate(166.08)"><tspan>в</tspan></text><text transform="translate(135.37,197.26) rotate(174.58)"><tspan>а</tspan></text><text transform="translate(124.58,198.00) rotate(182.29)"><tspan>т</tspan></text><text transform="translate(115.78,197.42) rotate(190.01)"><tspan>е</tspan></text><text transform="translate(105.18,195.26) rotate(198.50)"><tspan>л</tspan></text><text transform="translate(95.01,191.56) rotate(207.00)"><tspan>ь</tspan></text><text transform="translate(85.50,186.39) rotate(215.50)"><tspan>н</tspan></text><text transform="translate(76.86,179.88) rotate(224.00)"><tspan>а</tspan></text><text transform="translate(69.28,172.16) rotate(232.50)"><tspan>я</tspan></text><text transform="translate(62.92,163.41) rotate(239.95)"><tspan> </tspan></text><text transform="translate(59.02,156.24) rotate(248.98)"><tspan>ш</tspan></text><text transform="translate(54.08,142.28) rotate(258.66)"><tspan>к</tspan></text><text transform="translate(52.40,132.61) rotate(266.77)"><tspan>о</tspan></text><text transform="translate(52.07,121.79) rotate(275.27)"><tspan>л</tspan></text><text transform="translate(53.35,111.05) rotate(283.76)"><tspan>а</tspan></text><text transform="translate(56.19,100.61) rotate(291.22)"><tspan> </tspan></text><text transform="translate(59.34,93.09) rotate(301.42)"><tspan>№</tspan></text><text transform="translate(69.02,78.15) rotate(311.63)"><tspan> </tspan></text><text transform="translate(74.60,72.19) rotate(319.08)"><tspan>5</tspan></text><text transform="translate(82.96,65.32) rotate(327.58)"><tspan>6</tspan></text><text transform="translate(92.24,59.76) rotate(335.30)"><tspan>"</tspan></text><text transform="translate(100.35,56.29) rotate(341.96)"><tspan> </tspan></text><text transform="translate(108.17,53.97) rotate(348.63)"><tspan>*</tspan></text><text transform="translate(116.86,52.46) rotate(355.30)"><tspan> </tspan></text></g></svg>
